<?xml version="1.0" encoding="utf-8" standalone="no"?>
<!DOCTYPE svg PUBLIC "-//W3C//DTD SVG 1.1//EN"
  "http://www.w3.org/Graphics/SVG/1.1/DTD/svg11.dtd">
<svg xmlns:xlink="http://www.w3.org/1999/xlink" width="720pt" height="468pt" viewBox="0 0 720 468" xmlns="http://www.w3.org/2000/svg" version="1.1">
 <metadata>
  <rdf:RDF xmlns:dc="http://purl.org/dc/elements/1.1/" xmlns:cc="http://creativecommons.org/ns#" xmlns:rdf="http://www.w3.org/1999/02/22-rdf-syntax-ns#">
   <cc:Work>
    <dc:type rdf:resource="http://purl.org/dc/dcmitype/StillImage"/>
    <dc:date>2026-05-26T01:04:36.636242</dc:date>
    <dc:format>image/svg+xml</dc:format>
    <dc:creator>
     <cc:Agent>
      <dc:title>Matplotlib v3.10.0, https://matplotlib.org/</dc:title>
     </cc:Agent>
    </dc:creator>
   </cc:Work>
  </rdf:RDF>
 </metadata>
 <defs>
  <style type="text/css">*{stroke-linejoin: round; stroke-linecap: butt}</style>
 </defs>
 <g id="figure_1">
  <g id="patch_1">
   <path d="M 0 468 
L 720 468 
L 720 0 
L 0 0 
z
" style="fill: #ffffff"/>
  </g>
  <g id="axes_1">
   <g id="patch_2">
    <path d="M 202.01 415.116 
L 569.89 415.116 
L 569.89 12.96 
L 202.01 12.96 
z
" style="fill: #ffffff"/>
   </g>
   <g id="matplotlib.axis_1">
    <g id="xtick_1">
     <g id="line2d_1">
      <path d="M 275.92936 415.116 
L 275.92936 12.96 
" clip-path="url(#pe91d8428e6)" style="fill: none; stroke: #cccccc; stroke-linecap: round"/>
     </g>
     <g id="text_1">
      <!-- $\mathdefault{10^{4}}$ -->
      <g style="fill: #262626" transform="translate(266.24936 432.974281) scale(0.11 -0.11)">
       <defs>
        <path id="DejaVuSans-31" d="M 794 531 
L 1825 531 
L 1825 4091 
L 703 3866 
L 703 4441 
L 1819 4666 
L 2450 4666 
L 2450 531 
L 3481 531 
L 3481 0 
L 794 0 
L 794 531 
z
" transform="scale(0.015625)"/>
        <path id="DejaVuSans-30" d="M 2034 4250 
Q 1547 4250 1301 3770 
Q 1056 3291 1056 2328 
Q 1056 1369 1301 889 
Q 1547 409 2034 409 
Q 2525 409 2770 889 
Q 3016 1369 3016 2328 
Q 3016 3291 2770 3770 
Q 2525 4250 2034 4250 
z
M 2034 4750 
Q 2819 4750 3233 4129 
Q 3647 3509 3647 2328 
Q 3647 1150 3233 529 
Q 2819 -91 2034 -91 
Q 1250 -91 836 529 
Q 422 1150 422 2328 
Q 422 3509 836 4129 
Q 1250 4750 2034 4750 
z
" transform="scale(0.015625)"/>
        <path id="DejaVuSans-34" d="M 2419 4116 
L 825 1625 
L 2419 1625 
L 2419 4116 
z
M 2253 4666 
L 3047 4666 
L 3047 1625 
L 3713 1625 
L 3713 1100 
L 3047 1100 
L 3047 0 
L 2419 0 
L 2419 1100 
L 313 1100 
L 313 1709 
L 2253 4666 
z
" transform="scale(0.015625)"/>
       </defs>
       <use xlink:href="#DejaVuSans-31" transform="translate(0 0.684375)"/>
       <use xlink:href="#DejaVuSans-30" transform="translate(63.623047 0.684375)"/>
       <use xlink:href="#DejaVuSans-34" transform="translate(128.203125 38.965625) scale(0.7)"/>
      </g>
     </g>
    </g>
    <g id="xtick_2">
     <g id="line2d_2">
      <path d="M 388.559647 415.116 
L 388.559647 12.96 
" clip-path="url(#pe91d8428e6)" style="fill: none; stroke: #cccccc; stroke-linecap: round"/>
     </g>
     <g id="text_2">
      <!-- $\mathdefault{10^{5}}$ -->
      <g style="fill: #262626" transform="translate(378.879647 432.974281) scale(0.11 -0.11)">
       <defs>
        <path id="DejaVuSans-35" d="M 691 4666 
L 3169 4666 
L 3169 4134 
L 1269 4134 
L 1269 2991 
Q 1406 3038 1543 3061 
Q 1681 3084 1819 3084 
Q 2600 3084 3056 2656 
Q 3513 2228 3513 1497 
Q 3513 744 3044 326 
Q 2575 -91 1722 -91 
Q 1428 -91 1123 -41 
Q 819 9 494 109 
L 494 744 
Q 775 591 1075 516 
Q 1375 441 1709 441 
Q 2250 441 2565 725 
Q 2881 1009 2881 1497 
Q 2881 1984 2565 2268 
Q 2250 2553 1709 2553 
Q 1456 2553 1204 2497 
Q 953 2441 691 2322 
L 691 4666 
z
" transform="scale(0.015625)"/>
       </defs>
       <use xlink:href="#DejaVuSans-31" transform="translate(0 0.684375)"/>
       <use xlink:href="#DejaVuSans-30" transform="translate(63.623047 0.684375)"/>
       <use xlink:href="#DejaVuSans-35" transform="translate(128.203125 38.965625) scale(0.7)"/>
      </g>
     </g>
    </g>
    <g id="xtick_3">
     <g id="line2d_3">
      <path d="M 501.189935 415.116 
L 501.189935 12.96 
" clip-path="url(#pe91d8428e6)" style="fill: none; stroke: #cccccc; stroke-linecap: round"/>
     </g>
     <g id="text_3">
      <!-- $\mathdefault{10^{6}}$ -->
      <g style="fill: #262626" transform="translate(491.509935 432.974281) scale(0.11 -0.11)">
       <defs>
        <path id="DejaVuSans-36" d="M 2113 2584 
Q 1688 2584 1439 2293 
Q 1191 2003 1191 1497 
Q 1191 994 1439 701 
Q 1688 409 2113 409 
Q 2538 409 2786 701 
Q 3034 994 3034 1497 
Q 3034 2003 2786 2293 
Q 2538 2584 2113 2584 
z
M 3366 4563 
L 3366 3988 
Q 3128 4100 2886 4159 
Q 2644 4219 2406 4219 
Q 1781 4219 1451 3797 
Q 1122 3375 1075 2522 
Q 1259 2794 1537 2939 
Q 1816 3084 2150 3084 
Q 2853 3084 3261 2657 
Q 3669 2231 3669 1497 
Q 3669 778 3244 343 
Q 2819 -91 2113 -91 
Q 1303 -91 875 529 
Q 447 1150 447 2328 
Q 447 3434 972 4092 
Q 1497 4750 2381 4750 
Q 2619 4750 2861 4703 
Q 3103 4656 3366 4563 
z
" transform="scale(0.015625)"/>
       </defs>
       <use xlink:href="#DejaVuSans-31" transform="translate(0 0.765625)"/>
       <use xlink:href="#DejaVuSans-30" transform="translate(63.623047 0.765625)"/>
       <use xlink:href="#DejaVuSans-36" transform="translate(128.203125 39.046875) scale(0.7)"/>
      </g>
     </g>
    </g>
    <g id="xtick_4"/>
    <g id="xtick_5"/>
    <g id="xtick_6"/>
    <g id="xtick_7"/>
    <g id="xtick_8"/>
    <g id="xtick_9"/>
    <g id="xtick_10"/>
    <g id="xtick_11"/>
    <g id="xtick_12"/>
    <g id="xtick_13"/>
    <g id="xtick_14"/>
    <g id="xtick_15"/>
    <g id="xtick_16"/>
    <g id="xtick_17"/>
    <g id="xtick_18"/>
    <g id="xtick_19"/>
    <g id="xtick_20"/>
    <g id="xtick_21"/>
    <g id="xtick_22"/>
    <g id="xtick_23"/>
    <g id="xtick_24"/>
    <g id="xtick_25"/>
    <g id="xtick_26"/>
    <g id="xtick_27"/>
    <g id="xtick_28"/>
    <g id="xtick_29"/>
    <g id="text_4">
     <!-- Iterations per second (Logarithmic) -->
     <g style="fill: #262626" transform="translate(280.110938 448.380063) scale(0.12 -0.12)">
      <defs>
       <path id="DejaVuSans-49" d="M 628 4666 
L 1259 4666 
L 1259 0 
L 628 0 
L 628 4666 
z
" transform="scale(0.015625)"/>
       <path id="DejaVuSans-74" d="M 1172 4494 
L 1172 3500 
L 2356 3500 
L 2356 3053 
L 1172 3053 
L 1172 1153 
Q 1172 725 1289 603 
Q 1406 481 1766 481 
L 2356 481 
L 2356 0 
L 1766 0 
Q 1100 0 847 248 
Q 594 497 594 1153 
L 594 3053 
L 172 3053 
L 172 3500 
L 594 3500 
L 594 4494 
L 1172 4494 
z
" transform="scale(0.015625)"/>
       <path id="DejaVuSans-65" d="M 3597 1894 
L 3597 1613 
L 953 1613 
Q 991 1019 1311 708 
Q 1631 397 2203 397 
Q 2534 397 2845 478 
Q 3156 559 3463 722 
L 3463 178 
Q 3153 47 2828 -22 
Q 2503 -91 2169 -91 
Q 1331 -91 842 396 
Q 353 884 353 1716 
Q 353 2575 817 3079 
Q 1281 3584 2069 3584 
Q 2775 3584 3186 3129 
Q 3597 2675 3597 1894 
z
M 3022 2063 
Q 3016 2534 2758 2815 
Q 2500 3097 2075 3097 
Q 1594 3097 1305 2825 
Q 1016 2553 972 2059 
L 3022 2063 
z
" transform="scale(0.015625)"/>
       <path id="DejaVuSans-72" d="M 2631 2963 
Q 2534 3019 2420 3045 
Q 2306 3072 2169 3072 
Q 1681 3072 1420 2755 
Q 1159 2438 1159 1844 
L 1159 0 
L 581 0 
L 581 3500 
L 1159 3500 
L 1159 2956 
Q 1341 3275 1631 3429 
Q 1922 3584 2338 3584 
Q 2397 3584 2469 3576 
Q 2541 3569 2628 3553 
L 2631 2963 
z
" transform="scale(0.015625)"/>
       <path id="DejaVuSans-61" d="M 2194 1759 
Q 1497 1759 1228 1600 
Q 959 1441 959 1056 
Q 959 750 1161 570 
Q 1363 391 1709 391 
Q 2188 391 2477 730 
Q 2766 1069 2766 1631 
L 2766 1759 
L 2194 1759 
z
M 3341 1997 
L 3341 0 
L 2766 0 
L 2766 531 
Q 2569 213 2275 61 
Q 1981 -91 1556 -91 
Q 1019 -91 701 211 
Q 384 513 384 1019 
Q 384 1609 779 1909 
Q 1175 2209 1959 2209 
L 2766 2209 
L 2766 2266 
Q 2766 2663 2505 2880 
Q 2244 3097 1772 3097 
Q 1472 3097 1187 3025 
Q 903 2953 641 2809 
L 641 3341 
Q 956 3463 1253 3523 
Q 1550 3584 1831 3584 
Q 2591 3584 2966 3190 
Q 3341 2797 3341 1997 
z
" transform="scale(0.015625)"/>
       <path id="DejaVuSans-69" d="M 603 3500 
L 1178 3500 
L 1178 0 
L 603 0 
L 603 3500 
z
M 603 4863 
L 1178 4863 
L 1178 4134 
L 603 4134 
L 603 4863 
z
" transform="scale(0.015625)"/>
       <path id="DejaVuSans-6f" d="M 1959 3097 
Q 1497 3097 1228 2736 
Q 959 2375 959 1747 
Q 959 1119 1226 758 
Q 1494 397 1959 397 
Q 2419 397 2687 759 
Q 2956 1122 2956 1747 
Q 2956 2369 2687 2733 
Q 2419 3097 1959 3097 
z
M 1959 3584 
Q 2709 3584 3137 3096 
Q 3566 2609 3566 1747 
Q 3566 888 3137 398 
Q 2709 -91 1959 -91 
Q 1206 -91 779 398 
Q 353 888 353 1747 
Q 353 2609 779 3096 
Q 1206 3584 1959 3584 
z
" transform="scale(0.015625)"/>
       <path id="DejaVuSans-6e" d="M 3513 2113 
L 3513 0 
L 2938 0 
L 2938 2094 
Q 2938 2591 2744 2837 
Q 2550 3084 2163 3084 
Q 1697 3084 1428 2787 
Q 1159 2491 1159 1978 
L 1159 0 
L 581 0 
L 581 3500 
L 1159 3500 
L 1159 2956 
Q 1366 3272 1645 3428 
Q 1925 3584 2291 3584 
Q 2894 3584 3203 3211 
Q 3513 2838 3513 2113 
z
" transform="scale(0.015625)"/>
       <path id="DejaVuSans-73" d="M 2834 3397 
L 2834 2853 
Q 2591 2978 2328 3040 
Q 2066 3103 1784 3103 
Q 1356 3103 1142 2972 
Q 928 2841 928 2578 
Q 928 2378 1081 2264 
Q 1234 2150 1697 2047 
L 1894 2003 
Q 2506 1872 2764 1633 
Q 3022 1394 3022 966 
Q 3022 478 2636 193 
Q 2250 -91 1575 -91 
Q 1294 -91 989 -36 
Q 684 19 347 128 
L 347 722 
Q 666 556 975 473 
Q 1284 391 1588 391 
Q 1994 391 2212 530 
Q 2431 669 2431 922 
Q 2431 1156 2273 1281 
Q 2116 1406 1581 1522 
L 1381 1569 
Q 847 1681 609 1914 
Q 372 2147 372 2553 
Q 372 3047 722 3315 
Q 1072 3584 1716 3584 
Q 2034 3584 2315 3537 
Q 2597 3491 2834 3397 
z
" transform="scale(0.015625)"/>
       <path id="DejaVuSans-20" transform="scale(0.015625)"/>
       <path id="DejaVuSans-70" d="M 1159 525 
L 1159 -1331 
L 581 -1331 
L 581 3500 
L 1159 3500 
L 1159 2969 
Q 1341 3281 1617 3432 
Q 1894 3584 2278 3584 
Q 2916 3584 3314 3078 
Q 3713 2572 3713 1747 
Q 3713 922 3314 415 
Q 2916 -91 2278 -91 
Q 1894 -91 1617 61 
Q 1341 213 1159 525 
z
M 3116 1747 
Q 3116 2381 2855 2742 
Q 2594 3103 2138 3103 
Q 1681 3103 1420 2742 
Q 1159 2381 1159 1747 
Q 1159 1113 1420 752 
Q 1681 391 2138 391 
Q 2594 391 2855 752 
Q 3116 1113 3116 1747 
z
" transform="scale(0.015625)"/>
       <path id="DejaVuSans-63" d="M 3122 3366 
L 3122 2828 
Q 2878 2963 2633 3030 
Q 2388 3097 2138 3097 
Q 1578 3097 1268 2742 
Q 959 2388 959 1747 
Q 959 1106 1268 751 
Q 1578 397 2138 397 
Q 2388 397 2633 464 
Q 2878 531 3122 666 
L 3122 134 
Q 2881 22 2623 -34 
Q 2366 -91 2075 -91 
Q 1284 -91 818 406 
Q 353 903 353 1747 
Q 353 2603 823 3093 
Q 1294 3584 2113 3584 
Q 2378 3584 2631 3529 
Q 2884 3475 3122 3366 
z
" transform="scale(0.015625)"/>
       <path id="DejaVuSans-64" d="M 2906 2969 
L 2906 4863 
L 3481 4863 
L 3481 0 
L 2906 0 
L 2906 525 
Q 2725 213 2448 61 
Q 2172 -91 1784 -91 
Q 1150 -91 751 415 
Q 353 922 353 1747 
Q 353 2572 751 3078 
Q 1150 3584 1784 3584 
Q 2172 3584 2448 3432 
Q 2725 3281 2906 2969 
z
M 947 1747 
Q 947 1113 1208 752 
Q 1469 391 1925 391 
Q 2381 391 2643 752 
Q 2906 1113 2906 1747 
Q 2906 2381 2643 2742 
Q 2381 3103 1925 3103 
Q 1469 3103 1208 2742 
Q 947 2381 947 1747 
z
" transform="scale(0.015625)"/>
       <path id="DejaVuSans-28" d="M 1984 4856 
Q 1566 4138 1362 3434 
Q 1159 2731 1159 2009 
Q 1159 1288 1364 580 
Q 1569 -128 1984 -844 
L 1484 -844 
Q 1016 -109 783 600 
Q 550 1309 550 2009 
Q 550 2706 781 3412 
Q 1013 4119 1484 4856 
L 1984 4856 
z
" transform="scale(0.015625)"/>
       <path id="DejaVuSans-4c" d="M 628 4666 
L 1259 4666 
L 1259 531 
L 3531 531 
L 3531 0 
L 628 0 
L 628 4666 
z
" transform="scale(0.015625)"/>
       <path id="DejaVuSans-67" d="M 2906 1791 
Q 2906 2416 2648 2759 
Q 2391 3103 1925 3103 
Q 1463 3103 1205 2759 
Q 947 2416 947 1791 
Q 947 1169 1205 825 
Q 1463 481 1925 481 
Q 2391 481 2648 825 
Q 2906 1169 2906 1791 
z
M 3481 434 
Q 3481 -459 3084 -895 
Q 2688 -1331 1869 -1331 
Q 1566 -1331 1297 -1286 
Q 1028 -1241 775 -1147 
L 775 -588 
Q 1028 -725 1275 -790 
Q 1522 -856 1778 -856 
Q 2344 -856 2625 -561 
Q 2906 -266 2906 331 
L 2906 616 
Q 2728 306 2450 153 
Q 2172 0 1784 0 
Q 1141 0 747 490 
Q 353 981 353 1791 
Q 353 2603 747 3093 
Q 1141 3584 1784 3584 
Q 2172 3584 2450 3431 
Q 2728 3278 2906 2969 
L 2906 3500 
L 3481 3500 
L 3481 434 
z
" transform="scale(0.015625)"/>
       <path id="DejaVuSans-68" d="M 3513 2113 
L 3513 0 
L 2938 0 
L 2938 2094 
Q 2938 2591 2744 2837 
Q 2550 3084 2163 3084 
Q 1697 3084 1428 2787 
Q 1159 2491 1159 1978 
L 1159 0 
L 581 0 
L 581 4863 
L 1159 4863 
L 1159 2956 
Q 1366 3272 1645 3428 
Q 1925 3584 2291 3584 
Q 2894 3584 3203 3211 
Q 3513 2838 3513 2113 
z
" transform="scale(0.015625)"/>
       <path id="DejaVuSans-6d" d="M 3328 2828 
Q 3544 3216 3844 3400 
Q 4144 3584 4550 3584 
Q 5097 3584 5394 3201 
Q 5691 2819 5691 2113 
L 5691 0 
L 5113 0 
L 5113 2094 
Q 5113 2597 4934 2840 
Q 4756 3084 4391 3084 
Q 3944 3084 3684 2787 
Q 3425 2491 3425 1978 
L 3425 0 
L 2847 0 
L 2847 2094 
Q 2847 2600 2669 2842 
Q 2491 3084 2119 3084 
Q 1678 3084 1418 2786 
Q 1159 2488 1159 1978 
L 1159 0 
L 581 0 
L 581 3500 
L 1159 3500 
L 1159 2956 
Q 1356 3278 1631 3431 
Q 1906 3584 2284 3584 
Q 2666 3584 2933 3390 
Q 3200 3197 3328 2828 
z
" transform="scale(0.015625)"/>
       <path id="DejaVuSans-29" d="M 513 4856 
L 1013 4856 
Q 1481 4119 1714 3412 
Q 1947 2706 1947 2009 
Q 1947 1309 1714 600 
Q 1481 -109 1013 -844 
L 513 -844 
Q 928 -128 1133 580 
Q 1338 1288 1338 2009 
Q 1338 2731 1133 3434 
Q 928 4138 513 4856 
z
" transform="scale(0.015625)"/>
      </defs>
      <use xlink:href="#DejaVuSans-49"/>
      <use xlink:href="#DejaVuSans-74" transform="translate(29.492188 0)"/>
      <use xlink:href="#DejaVuSans-65" transform="translate(68.701172 0)"/>
      <use xlink:href="#DejaVuSans-72" transform="translate(130.224609 0)"/>
      <use xlink:href="#DejaVuSans-61" transform="translate(171.337891 0)"/>
      <use xlink:href="#DejaVuSans-74" transform="translate(232.617188 0)"/>
      <use xlink:href="#DejaVuSans-69" transform="translate(271.826172 0)"/>
      <use xlink:href="#DejaVuSans-6f" transform="translate(299.609375 0)"/>
      <use xlink:href="#DejaVuSans-6e" transform="translate(360.791016 0)"/>
      <use xlink:href="#DejaVuSans-73" transform="translate(424.169922 0)"/>
      <use xlink:href="#DejaVuSans-20" transform="translate(476.269531 0)"/>
      <use xlink:href="#DejaVuSans-70" transform="translate(508.056641 0)"/>
      <use xlink:href="#DejaVuSans-65" transform="translate(571.533203 0)"/>
      <use xlink:href="#DejaVuSans-72" transform="translate(633.056641 0)"/>
      <use xlink:href="#DejaVuSans-20" transform="translate(674.169922 0)"/>
      <use xlink:href="#DejaVuSans-73" transform="translate(705.957031 0)"/>
      <use xlink:href="#DejaVuSans-65" transform="translate(758.056641 0)"/>
      <use xlink:href="#DejaVuSans-63" transform="translate(819.580078 0)"/>
      <use xlink:href="#DejaVuSans-6f" transform="translate(874.560547 0)"/>
      <use xlink:href="#DejaVuSans-6e" transform="translate(935.742188 0)"/>
      <use xlink:href="#DejaVuSans-64" transform="translate(999.121094 0)"/>
      <use xlink:href="#DejaVuSans-20" transform="translate(1062.597656 0)"/>
      <use xlink:href="#DejaVuSans-28" transform="translate(1094.384766 0)"/>
      <use xlink:href="#DejaVuSans-4c" transform="translate(1133.398438 0)"/>
      <use xlink:href="#DejaVuSans-6f" transform="translate(1187.361328 0)"/>
      <use xlink:href="#DejaVuSans-67" transform="translate(1248.542969 0)"/>
      <use xlink:href="#DejaVuSans-61" transform="translate(1312.019531 0)"/>
      <use xlink:href="#DejaVuSans-72" transform="translate(1373.298828 0)"/>
      <use xlink:href="#DejaVuSans-69" transform="translate(1414.412109 0)"/>
      <use xlink:href="#DejaVuSans-74" transform="translate(1442.195312 0)"/>
      <use xlink:href="#DejaVuSans-68" transform="translate(1481.404297 0)"/>
      <use xlink:href="#DejaVuSans-6d" transform="translate(1544.783203 0)"/>
      <use xlink:href="#DejaVuSans-69" transform="translate(1642.195312 0)"/>
      <use xlink:href="#DejaVuSans-63" transform="translate(1669.978516 0)"/>
      <use xlink:href="#DejaVuSans-29" transform="translate(1724.958984 0)"/>
     </g>
    </g>
   </g>
   <g id="matplotlib.axis_2">
    <g id="ytick_1">
     <g id="text_5">
      <!-- unsafe lua reference -->
      <g style="fill: #262626" transform="translate(79.180781 57.354741) scale(0.11 -0.11)">
       <defs>
        <path id="DejaVuSans-75" d="M 544 1381 
L 544 3500 
L 1119 3500 
L 1119 1403 
Q 1119 906 1312 657 
Q 1506 409 1894 409 
Q 2359 409 2629 706 
Q 2900 1003 2900 1516 
L 2900 3500 
L 3475 3500 
L 3475 0 
L 2900 0 
L 2900 538 
Q 2691 219 2414 64 
Q 2138 -91 1772 -91 
Q 1169 -91 856 284 
Q 544 659 544 1381 
z
M 1991 3584 
L 1991 3584 
z
" transform="scale(0.015625)"/>
        <path id="DejaVuSans-66" d="M 2375 4863 
L 2375 4384 
L 1825 4384 
Q 1516 4384 1395 4259 
Q 1275 4134 1275 3809 
L 1275 3500 
L 2222 3500 
L 2222 3053 
L 1275 3053 
L 1275 0 
L 697 0 
L 697 3053 
L 147 3053 
L 147 3500 
L 697 3500 
L 697 3744 
Q 697 4328 969 4595 
Q 1241 4863 1831 4863 
L 2375 4863 
z
" transform="scale(0.015625)"/>
        <path id="DejaVuSans-6c" d="M 603 4863 
L 1178 4863 
L 1178 0 
L 603 0 
L 603 4863 
z
" transform="scale(0.015625)"/>
       </defs>
       <use xlink:href="#DejaVuSans-75"/>
       <use xlink:href="#DejaVuSans-6e" transform="translate(63.378906 0)"/>
       <use xlink:href="#DejaVuSans-73" transform="translate(126.757812 0)"/>
       <use xlink:href="#DejaVuSans-61" transform="translate(178.857422 0)"/>
       <use xlink:href="#DejaVuSans-66" transform="translate(240.136719 0)"/>
       <use xlink:href="#DejaVuSans-65" transform="translate(275.341797 0)"/>
       <use xlink:href="#DejaVuSans-20" transform="translate(336.865234 0)"/>
       <use xlink:href="#DejaVuSans-6c" transform="translate(368.652344 0)"/>
       <use xlink:href="#DejaVuSans-75" transform="translate(396.435547 0)"/>
       <use xlink:href="#DejaVuSans-61" transform="translate(459.814453 0)"/>
       <use xlink:href="#DejaVuSans-20" transform="translate(521.09375 0)"/>
       <use xlink:href="#DejaVuSans-72" transform="translate(552.880859 0)"/>
       <use xlink:href="#DejaVuSans-65" transform="translate(591.744141 0)"/>
       <use xlink:href="#DejaVuSans-66" transform="translate(653.267578 0)"/>
       <use xlink:href="#DejaVuSans-65" transform="translate(688.472656 0)"/>
       <use xlink:href="#DejaVuSans-72" transform="translate(749.996094 0)"/>
       <use xlink:href="#DejaVuSans-65" transform="translate(788.859375 0)"/>
       <use xlink:href="#DejaVuSans-6e" transform="translate(850.382812 0)"/>
       <use xlink:href="#DejaVuSans-63" transform="translate(913.761719 0)"/>
       <use xlink:href="#DejaVuSans-65" transform="translate(968.742188 0)"/>
      </g>
     </g>
    </g>
    <g id="ytick_2">
     <g id="text_6">
      <!-- unsafe grug transpiler backend -->
      <g style="fill: #262626" transform="translate(20.378906 137.785941) scale(0.11 -0.11)">
       <defs>
        <path id="DejaVuSans-62" d="M 3116 1747 
Q 3116 2381 2855 2742 
Q 2594 3103 2138 3103 
Q 1681 3103 1420 2742 
Q 1159 2381 1159 1747 
Q 1159 1113 1420 752 
Q 1681 391 2138 391 
Q 2594 391 2855 752 
Q 3116 1113 3116 1747 
z
M 1159 2969 
Q 1341 3281 1617 3432 
Q 1894 3584 2278 3584 
Q 2916 3584 3314 3078 
Q 3713 2572 3713 1747 
Q 3713 922 3314 415 
Q 2916 -91 2278 -91 
Q 1894 -91 1617 61 
Q 1341 213 1159 525 
L 1159 0 
L 581 0 
L 581 4863 
L 1159 4863 
L 1159 2969 
z
" transform="scale(0.015625)"/>
        <path id="DejaVuSans-6b" d="M 581 4863 
L 1159 4863 
L 1159 1991 
L 2875 3500 
L 3609 3500 
L 1753 1863 
L 3688 0 
L 2938 0 
L 1159 1709 
L 1159 0 
L 581 0 
L 581 4863 
z
" transform="scale(0.015625)"/>
       </defs>
       <use xlink:href="#DejaVuSans-75"/>
       <use xlink:href="#DejaVuSans-6e" transform="translate(63.378906 0)"/>
       <use xlink:href="#DejaVuSans-73" transform="translate(126.757812 0)"/>
       <use xlink:href="#DejaVuSans-61" transform="translate(178.857422 0)"/>
       <use xlink:href="#DejaVuSans-66" transform="translate(240.136719 0)"/>
       <use xlink:href="#DejaVuSans-65" transform="translate(275.341797 0)"/>
       <use xlink:href="#DejaVuSans-20" transform="translate(336.865234 0)"/>
       <use xlink:href="#DejaVuSans-67" transform="translate(368.652344 0)"/>
       <use xlink:href="#DejaVuSans-72" transform="translate(432.128906 0)"/>
       <use xlink:href="#DejaVuSans-75" transform="translate(473.242188 0)"/>
       <use xlink:href="#DejaVuSans-67" transform="translate(536.621094 0)"/>
       <use xlink:href="#DejaVuSans-20" transform="translate(600.097656 0)"/>
       <use xlink:href="#DejaVuSans-74" transform="translate(631.884766 0)"/>
       <use xlink:href="#DejaVuSans-72" transform="translate(671.09375 0)"/>
       <use xlink:href="#DejaVuSans-61" transform="translate(712.207031 0)"/>
       <use xlink:href="#DejaVuSans-6e" transform="translate(773.486328 0)"/>
       <use xlink:href="#DejaVuSans-73" transform="translate(836.865234 0)"/>
       <use xlink:href="#DejaVuSans-70" transform="translate(888.964844 0)"/>
       <use xlink:href="#DejaVuSans-69" transform="translate(952.441406 0)"/>
       <use xlink:href="#DejaVuSans-6c" transform="translate(980.224609 0)"/>
       <use xlink:href="#DejaVuSans-65" transform="translate(1008.007812 0)"/>
       <use xlink:href="#DejaVuSans-72" transform="translate(1069.53125 0)"/>
       <use xlink:href="#DejaVuSans-20" transform="translate(1110.644531 0)"/>
       <use xlink:href="#DejaVuSans-62" transform="translate(1142.431641 0)"/>
       <use xlink:href="#DejaVuSans-61" transform="translate(1205.908203 0)"/>
       <use xlink:href="#DejaVuSans-63" transform="translate(1267.1875 0)"/>
       <use xlink:href="#DejaVuSans-6b" transform="translate(1322.167969 0)"/>
       <use xlink:href="#DejaVuSans-65" transform="translate(1376.453125 0)"/>
       <use xlink:href="#DejaVuSans-6e" transform="translate(1437.976562 0)"/>
       <use xlink:href="#DejaVuSans-64" transform="translate(1501.355469 0)"/>
      </g>
     </g>
    </g>
    <g id="ytick_3">
     <g id="text_7">
      <!-- safe grug transpiler backend -->
      <g style="fill: #262626" transform="translate(34.321406 218.217141) scale(0.11 -0.11)">
       <use xlink:href="#DejaVuSans-73"/>
       <use xlink:href="#DejaVuSans-61" transform="translate(52.099609 0)"/>
       <use xlink:href="#DejaVuSans-66" transform="translate(113.378906 0)"/>
       <use xlink:href="#DejaVuSans-65" transform="translate(148.583984 0)"/>
       <use xlink:href="#DejaVuSans-20" transform="translate(210.107422 0)"/>
       <use xlink:href="#DejaVuSans-67" transform="translate(241.894531 0)"/>
       <use xlink:href="#DejaVuSans-72" transform="translate(305.371094 0)"/>
       <use xlink:href="#DejaVuSans-75" transform="translate(346.484375 0)"/>
       <use xlink:href="#DejaVuSans-67" transform="translate(409.863281 0)"/>
       <use xlink:href="#DejaVuSans-20" transform="translate(473.339844 0)"/>
       <use xlink:href="#DejaVuSans-74" transform="translate(505.126953 0)"/>
       <use xlink:href="#DejaVuSans-72" transform="translate(544.335938 0)"/>
       <use xlink:href="#DejaVuSans-61" transform="translate(585.449219 0)"/>
       <use xlink:href="#DejaVuSans-6e" transform="translate(646.728516 0)"/>
       <use xlink:href="#DejaVuSans-73" transform="translate(710.107422 0)"/>
       <use xlink:href="#DejaVuSans-70" transform="translate(762.207031 0)"/>
       <use xlink:href="#DejaVuSans-69" transform="translate(825.683594 0)"/>
       <use xlink:href="#DejaVuSans-6c" transform="translate(853.466797 0)"/>
       <use xlink:href="#DejaVuSans-65" transform="translate(881.25 0)"/>
       <use xlink:href="#DejaVuSans-72" transform="translate(942.773438 0)"/>
       <use xlink:href="#DejaVuSans-20" transform="translate(983.886719 0)"/>
       <use xlink:href="#DejaVuSans-62" transform="translate(1015.673828 0)"/>
       <use xlink:href="#DejaVuSans-61" transform="translate(1079.150391 0)"/>
       <use xlink:href="#DejaVuSans-63" transform="translate(1140.429688 0)"/>
       <use xlink:href="#DejaVuSans-6b" transform="translate(1195.410156 0)"/>
       <use xlink:href="#DejaVuSans-65" transform="translate(1249.695312 0)"/>
       <use xlink:href="#DejaVuSans-6e" transform="translate(1311.21875 0)"/>
       <use xlink:href="#DejaVuSans-64" transform="translate(1374.597656 0)"/>
      </g>
     </g>
    </g>
    <g id="ytick_4">
     <g id="text_8">
      <!-- unsafe grug interpreter backend -->
      <g style="fill: #262626" transform="translate(13.782344 298.648341) scale(0.11 -0.11)">
       <use xlink:href="#DejaVuSans-75"/>
       <use xlink:href="#DejaVuSans-6e" transform="translate(63.378906 0)"/>
       <use xlink:href="#DejaVuSans-73" transform="translate(126.757812 0)"/>
       <use xlink:href="#DejaVuSans-61" transform="translate(178.857422 0)"/>
       <use xlink:href="#DejaVuSans-66" transform="translate(240.136719 0)"/>
       <use xlink:href="#DejaVuSans-65" transform="translate(275.341797 0)"/>
       <use xlink:href="#DejaVuSans-20" transform="translate(336.865234 0)"/>
       <use xlink:href="#DejaVuSans-67" transform="translate(368.652344 0)"/>
       <use xlink:href="#DejaVuSans-72" transform="translate(432.128906 0)"/>
       <use xlink:href="#DejaVuSans-75" transform="translate(473.242188 0)"/>
       <use xlink:href="#DejaVuSans-67" transform="translate(536.621094 0)"/>
       <use xlink:href="#DejaVuSans-20" transform="translate(600.097656 0)"/>
       <use xlink:href="#DejaVuSans-69" transform="translate(631.884766 0)"/>
       <use xlink:href="#DejaVuSans-6e" transform="translate(659.667969 0)"/>
       <use xlink:href="#DejaVuSans-74" transform="translate(723.046875 0)"/>
       <use xlink:href="#DejaVuSans-65" transform="translate(762.255859 0)"/>
       <use xlink:href="#DejaVuSans-72" transform="translate(823.779297 0)"/>
       <use xlink:href="#DejaVuSans-70" transform="translate(864.892578 0)"/>
       <use xlink:href="#DejaVuSans-72" transform="translate(928.369141 0)"/>
       <use xlink:href="#DejaVuSans-65" transform="translate(967.232422 0)"/>
       <use xlink:href="#DejaVuSans-74" transform="translate(1028.755859 0)"/>
       <use xlink:href="#DejaVuSans-65" transform="translate(1067.964844 0)"/>
       <use xlink:href="#DejaVuSans-72" transform="translate(1129.488281 0)"/>
       <use xlink:href="#DejaVuSans-20" transform="translate(1170.601562 0)"/>
       <use xlink:href="#DejaVuSans-62" transform="translate(1202.388672 0)"/>
       <use xlink:href="#DejaVuSans-61" transform="translate(1265.865234 0)"/>
       <use xlink:href="#DejaVuSans-63" transform="translate(1327.144531 0)"/>
       <use xlink:href="#DejaVuSans-6b" transform="translate(1382.125 0)"/>
       <use xlink:href="#DejaVuSans-65" transform="translate(1436.410156 0)"/>
       <use xlink:href="#DejaVuSans-6e" transform="translate(1497.933594 0)"/>
       <use xlink:href="#DejaVuSans-64" transform="translate(1561.3125 0)"/>
      </g>
     </g>
    </g>
    <g id="ytick_5">
     <g id="text_9">
      <!-- safe grug interpreter backend -->
      <g style="fill: #262626" transform="translate(27.724844 379.079541) scale(0.11 -0.11)">
       <use xlink:href="#DejaVuSans-73"/>
       <use xlink:href="#DejaVuSans-61" transform="translate(52.099609 0)"/>
       <use xlink:href="#DejaVuSans-66" transform="translate(113.378906 0)"/>
       <use xlink:href="#DejaVuSans-65" transform="translate(148.583984 0)"/>
       <use xlink:href="#DejaVuSans-20" transform="translate(210.107422 0)"/>
       <use xlink:href="#DejaVuSans-67" transform="translate(241.894531 0)"/>
       <use xlink:href="#DejaVuSans-72" transform="translate(305.371094 0)"/>
       <use xlink:href="#DejaVuSans-75" transform="translate(346.484375 0)"/>
       <use xlink:href="#DejaVuSans-67" transform="translate(409.863281 0)"/>
       <use xlink:href="#DejaVuSans-20" transform="translate(473.339844 0)"/>
       <use xlink:href="#DejaVuSans-69" transform="translate(505.126953 0)"/>
       <use xlink:href="#DejaVuSans-6e" transform="translate(532.910156 0)"/>
       <use xlink:href="#DejaVuSans-74" transform="translate(596.289062 0)"/>
       <use xlink:href="#DejaVuSans-65" transform="translate(635.498047 0)"/>
       <use xlink:href="#DejaVuSans-72" transform="translate(697.021484 0)"/>
       <use xlink:href="#DejaVuSans-70" transform="translate(738.134766 0)"/>
       <use xlink:href="#DejaVuSans-72" transform="translate(801.611328 0)"/>
       <use xlink:href="#DejaVuSans-65" transform="translate(840.474609 0)"/>
       <use xlink:href="#DejaVuSans-74" transform="translate(901.998047 0)"/>
       <use xlink:href="#DejaVuSans-65" transform="translate(941.207031 0)"/>
       <use xlink:href="#DejaVuSans-72" transform="translate(1002.730469 0)"/>
       <use xlink:href="#DejaVuSans-20" transform="translate(1043.84375 0)"/>
       <use xlink:href="#DejaVuSans-62" transform="translate(1075.630859 0)"/>
       <use xlink:href="#DejaVuSans-61" transform="translate(1139.107422 0)"/>
       <use xlink:href="#DejaVuSans-63" transform="translate(1200.386719 0)"/>
       <use xlink:href="#DejaVuSans-6b" transform="translate(1255.367188 0)"/>
       <use xlink:href="#DejaVuSans-65" transform="translate(1309.652344 0)"/>
       <use xlink:href="#DejaVuSans-6e" transform="translate(1371.175781 0)"/>
       <use xlink:href="#DejaVuSans-64" transform="translate(1434.554688 0)"/>
      </g>
     </g>
    </g>
   </g>
   <g id="patch_3">
    <path d="M -112804.879277 21.00312 
L 553.168182 21.00312 
L 553.168182 37.08936 
L -112804.879277 37.08936 
z
" clip-path="url(#pe91d8428e6)" style="fill: #5875a4; stroke: #ffffff; stroke-linejoin: miter"/>
   </g>
   <g id="patch_4">
    <path d="M -112804.879277 101.43432 
L 553.151283 101.43432 
L 553.151283 117.52056 
L -112804.879277 117.52056 
z
" clip-path="url(#pe91d8428e6)" style="fill: #5875a4; stroke: #ffffff; stroke-linejoin: miter"/>
   </g>
   <g id="patch_5">
    <path d="M -112804.879277 181.86552 
L 351.704578 181.86552 
L 351.704578 197.95176 
L -112804.879277 197.95176 
z
" clip-path="url(#pe91d8428e6)" style="fill: #5875a4; stroke: #ffffff; stroke-linejoin: miter"/>
   </g>
   <g id="patch_6">
    <path d="M -112804.879277 262.29672 
L 336.038396 262.29672 
L 336.038396 278.38296 
L -112804.879277 278.38296 
z
" clip-path="url(#pe91d8428e6)" style="fill: #5875a4; stroke: #ffffff; stroke-linejoin: miter"/>
   </g>
   <g id="patch_7">
    <path d="M -112804.879277 342.72792 
L 300.672334 342.72792 
L 300.672334 358.81416 
L -112804.879277 358.81416 
z
" clip-path="url(#pe91d8428e6)" style="fill: #5875a4; stroke: #ffffff; stroke-linejoin: miter"/>
   </g>
   <g id="patch_8">
    <path d="M -112804.879277 37.08936 
L 516.586355 37.08936 
L 516.586355 53.1756 
L -112804.879277 53.1756 
z
" clip-path="url(#pe91d8428e6)" style="fill: #cc8963; stroke: #ffffff; stroke-linejoin: miter"/>
   </g>
   <g id="patch_9">
    <path d="M -112804.879277 117.52056 
L 515.72852 117.52056 
L 515.72852 133.6068 
L -112804.879277 133.6068 
z
" clip-path="url(#pe91d8428e6)" style="fill: #cc8963; stroke: #ffffff; stroke-linejoin: miter"/>
   </g>
   <g id="patch_10">
    <path d="M -112804.879277 197.95176 
L 353.549298 197.95176 
L 353.549298 214.038 
L -112804.879277 214.038 
z
" clip-path="url(#pe91d8428e6)" style="fill: #cc8963; stroke: #ffffff; stroke-linejoin: miter"/>
   </g>
   <g id="patch_11">
    <path d="M -112804.879277 278.38296 
L 254.057493 278.38296 
L 254.057493 294.4692 
L -112804.879277 294.4692 
z
" clip-path="url(#pe91d8428e6)" style="fill: #cc8963; stroke: #ffffff; stroke-linejoin: miter"/>
   </g>
   <g id="patch_12">
    <path d="M -112804.879277 358.81416 
L 244.026986 358.81416 
L 244.026986 374.9004 
L -112804.879277 374.9004 
z
" clip-path="url(#pe91d8428e6)" style="fill: #cc8963; stroke: #ffffff; stroke-linejoin: miter"/>
   </g>
   <g id="patch_13">
    <path d="M -112804.879277 53.1756 
L 444.771636 53.1756 
L 444.771636 69.26184 
L -112804.879277 69.26184 
z
" clip-path="url(#pe91d8428e6)" style="fill: #5f9e6e; stroke: #ffffff; stroke-linejoin: miter"/>
   </g>
   <g id="patch_14">
    <path d="M -112804.879277 133.6068 
L 445.161319 133.6068 
L 445.161319 149.69304 
L -112804.879277 149.69304 
z
" clip-path="url(#pe91d8428e6)" style="fill: #5f9e6e; stroke: #ffffff; stroke-linejoin: miter"/>
   </g>
   <g id="patch_15">
    <path d="M -112804.879277 214.038 
L 345.39877 214.038 
L 345.39877 230.12424 
L -112804.879277 230.12424 
z
" clip-path="url(#pe91d8428e6)" style="fill: #5f9e6e; stroke: #ffffff; stroke-linejoin: miter"/>
   </g>
   <g id="patch_16">
    <path d="M -112804.879277 294.4692 
L 246.129248 294.4692 
L 246.129248 310.55544 
L -112804.879277 310.55544 
z
" clip-path="url(#pe91d8428e6)" style="fill: #5f9e6e; stroke: #ffffff; stroke-linejoin: miter"/>
   </g>
   <g id="patch_17">
    <path d="M -112804.879277 374.9004 
L 238.729808 374.9004 
L 238.729808 390.98664 
L -112804.879277 390.98664 
z
" clip-path="url(#pe91d8428e6)" style="fill: #5f9e6e; stroke: #ffffff; stroke-linejoin: miter"/>
   </g>
   <g id="patch_18">
    <path d="M -112804.879277 69.26184 
L 430.675921 69.26184 
L 430.675921 85.34808 
L -112804.879277 85.34808 
z
" clip-path="url(#pe91d8428e6)" style="fill: #b55d60; stroke: #ffffff; stroke-linejoin: miter"/>
   </g>
   <g id="patch_19">
    <path d="M -112804.879277 149.69304 
L 432.312208 149.69304 
L 432.312208 165.77928 
L -112804.879277 165.77928 
z
" clip-path="url(#pe91d8428e6)" style="fill: #b55d60; stroke: #ffffff; stroke-linejoin: miter"/>
   </g>
   <g id="patch_20">
    <path d="M -112804.879277 230.12424 
L 344.438179 230.12424 
L 344.438179 246.21048 
L -112804.879277 246.21048 
z
" clip-path="url(#pe91d8428e6)" style="fill: #b55d60; stroke: #ffffff; stroke-linejoin: miter"/>
   </g>
   <g id="patch_21">
    <path d="M -112804.879277 310.55544 
L 223.899323 310.55544 
L 223.899323 326.64168 
L -112804.879277 326.64168 
z
" clip-path="url(#pe91d8428e6)" style="fill: #b55d60; stroke: #ffffff; stroke-linejoin: miter"/>
   </g>
   <g id="patch_22">
    <path d="M -112804.879277 390.98664 
L 218.731818 390.98664 
L 218.731818 407.07288 
L -112804.879277 407.07288 
z
" clip-path="url(#pe91d8428e6)" style="fill: #b55d60; stroke: #ffffff; stroke-linejoin: miter"/>
   </g>
   <g id="patch_23">
    <path d="M -112804.879277 53.1756 
L -112804.879277 53.1756 
L -112804.879277 53.1756 
L -112804.879277 53.1756 
z
" clip-path="url(#pe91d8428e6)" style="fill: #5875a4; stroke: #ffffff; stroke-linejoin: miter"/>
   </g>
   <g id="patch_24">
    <path d="M -112804.879277 53.1756 
L -112804.879277 53.1756 
L -112804.879277 53.1756 
L -112804.879277 53.1756 
z
" clip-path="url(#pe91d8428e6)" style="fill: #cc8963; stroke: #ffffff; stroke-linejoin: miter"/>
   </g>
   <g id="patch_25">
    <path d="M -112804.879277 53.1756 
L -112804.879277 53.1756 
L -112804.879277 53.1756 
L -112804.879277 53.1756 
z
" clip-path="url(#pe91d8428e6)" style="fill: #5f9e6e; stroke: #ffffff; stroke-linejoin: miter"/>
   </g>
   <g id="patch_26">
    <path d="M -112804.879277 53.1756 
L -112804.879277 53.1756 
L -112804.879277 53.1756 
L -112804.879277 53.1756 
z
" clip-path="url(#pe91d8428e6)" style="fill: #b55d60; stroke: #ffffff; stroke-linejoin: miter"/>
   </g>
   <g id="patch_27">
    <path d="M 202.01 415.116 
L 202.01 12.96 
" style="fill: none; stroke: #cccccc; stroke-width: 1.25; stroke-linejoin: miter; stroke-linecap: square"/>
   </g>
   <g id="patch_28">
    <path d="M 569.89 415.116 
L 569.89 12.96 
" style="fill: none; stroke: #cccccc; stroke-width: 1.25; stroke-linejoin: miter; stroke-linecap: square"/>
   </g>
   <g id="patch_29">
    <path d="M 202.01 415.116 
L 569.89 415.116 
" style="fill: none; stroke: #cccccc; stroke-width: 1.25; stroke-linejoin: miter; stroke-linecap: square"/>
   </g>
   <g id="patch_30">
    <path d="M 202.01 12.96 
L 569.89 12.96 
" style="fill: none; stroke: #cccccc; stroke-width: 1.25; stroke-linejoin: miter; stroke-linecap: square"/>
   </g>
   <g id="legend_1">
    <g id="patch_31">
     <path d="M 595.984 103.763438 
L 695.669625 103.763438 
Q 697.869625 103.763438 697.869625 101.563438 
L 697.869625 20.66 
Q 697.869625 18.46 695.669625 18.46 
L 595.984 18.46 
Q 593.784 18.46 593.784 20.66 
L 593.784 101.563438 
Q 593.784 103.763438 595.984 103.763438 
z
" style="fill: #ffffff; opacity: 0.8; stroke: #cccccc; stroke-linejoin: miter"/>
    </g>
    <g id="text_10">
     <!-- Implementation -->
     <g style="fill: #262626" transform="translate(598.184 31.978125) scale(0.12 -0.12)">
      <use xlink:href="#DejaVuSans-49"/>
      <use xlink:href="#DejaVuSans-6d" transform="translate(29.492188 0)"/>
      <use xlink:href="#DejaVuSans-70" transform="translate(126.904297 0)"/>
      <use xlink:href="#DejaVuSans-6c" transform="translate(190.380859 0)"/>
      <use xlink:href="#DejaVuSans-65" transform="translate(218.164062 0)"/>
      <use xlink:href="#DejaVuSans-6d" transform="translate(279.6875 0)"/>
      <use xlink:href="#DejaVuSans-65" transform="translate(377.099609 0)"/>
      <use xlink:href="#DejaVuSans-6e" transform="translate(438.623047 0)"/>
      <use xlink:href="#DejaVuSans-74" transform="translate(502.001953 0)"/>
      <use xlink:href="#DejaVuSans-61" transform="translate(541.210938 0)"/>
      <use xlink:href="#DejaVuSans-74" transform="translate(602.490234 0)"/>
      <use xlink:href="#DejaVuSans-69" transform="translate(641.699219 0)"/>
      <use xlink:href="#DejaVuSans-6f" transform="translate(669.482422 0)"/>
      <use xlink:href="#DejaVuSans-6e" transform="translate(730.664062 0)"/>
     </g>
    </g>
    <g id="patch_32">
     <path d="M 605.315016 48.332031 
L 627.315016 48.332031 
L 627.315016 40.632031 
L 605.315016 40.632031 
z
" style="fill: #5875a4; stroke: #ffffff; stroke-linejoin: miter"/>
    </g>
    <g id="text_11">
     <!-- luajit -->
     <g style="fill: #262626" transform="translate(636.115016 48.332031) scale(0.11 -0.11)">
      <defs>
       <path id="DejaVuSans-6a" d="M 603 3500 
L 1178 3500 
L 1178 -63 
Q 1178 -731 923 -1031 
Q 669 -1331 103 -1331 
L -116 -1331 
L -116 -844 
L 38 -844 
Q 366 -844 484 -692 
Q 603 -541 603 -63 
L 603 3500 
z
M 603 4863 
L 1178 4863 
L 1178 4134 
L 603 4134 
L 603 4863 
z
" transform="scale(0.015625)"/>
      </defs>
      <use xlink:href="#DejaVuSans-6c"/>
      <use xlink:href="#DejaVuSans-75" transform="translate(27.783203 0)"/>
      <use xlink:href="#DejaVuSans-61" transform="translate(91.162109 0)"/>
      <use xlink:href="#DejaVuSans-6a" transform="translate(152.441406 0)"/>
      <use xlink:href="#DejaVuSans-69" transform="translate(180.224609 0)"/>
      <use xlink:href="#DejaVuSans-74" transform="translate(208.007812 0)"/>
     </g>
    </g>
    <g id="patch_33">
     <path d="M 605.315016 64.477969 
L 627.315016 64.477969 
L 627.315016 56.777969 
L 605.315016 56.777969 
z
" style="fill: #cc8963; stroke: #ffffff; stroke-linejoin: miter"/>
    </g>
    <g id="text_12">
     <!-- luajitr -->
     <g style="fill: #262626" transform="translate(636.115016 64.477969) scale(0.11 -0.11)">
      <use xlink:href="#DejaVuSans-6c"/>
      <use xlink:href="#DejaVuSans-75" transform="translate(27.783203 0)"/>
      <use xlink:href="#DejaVuSans-61" transform="translate(91.162109 0)"/>
      <use xlink:href="#DejaVuSans-6a" transform="translate(152.441406 0)"/>
      <use xlink:href="#DejaVuSans-69" transform="translate(180.224609 0)"/>
      <use xlink:href="#DejaVuSans-74" transform="translate(208.007812 0)"/>
      <use xlink:href="#DejaVuSans-72" transform="translate(247.216797 0)"/>
     </g>
    </g>
    <g id="patch_34">
     <path d="M 605.315016 80.623906 
L 627.315016 80.623906 
L 627.315016 72.923906 
L 605.315016 72.923906 
z
" style="fill: #5f9e6e; stroke: #ffffff; stroke-linejoin: miter"/>
    </g>
    <g id="text_13">
     <!-- luajit_joff -->
     <g style="fill: #262626" transform="translate(636.115016 80.623906) scale(0.11 -0.11)">
      <defs>
       <path id="DejaVuSans-5f" d="M 3263 -1063 
L 3263 -1509 
L -63 -1509 
L -63 -1063 
L 3263 -1063 
z
" transform="scale(0.015625)"/>
      </defs>
      <use xlink:href="#DejaVuSans-6c"/>
      <use xlink:href="#DejaVuSans-75" transform="translate(27.783203 0)"/>
      <use xlink:href="#DejaVuSans-61" transform="translate(91.162109 0)"/>
      <use xlink:href="#DejaVuSans-6a" transform="translate(152.441406 0)"/>
      <use xlink:href="#DejaVuSans-69" transform="translate(180.224609 0)"/>
      <use xlink:href="#DejaVuSans-74" transform="translate(208.007812 0)"/>
      <use xlink:href="#DejaVuSans-5f" transform="translate(247.216797 0)"/>
      <use xlink:href="#DejaVuSans-6a" transform="translate(297.216797 0)"/>
      <use xlink:href="#DejaVuSans-6f" transform="translate(325 0)"/>
      <use xlink:href="#DejaVuSans-66" transform="translate(386.181641 0)"/>
      <use xlink:href="#DejaVuSans-66" transform="translate(421.386719 0)"/>
     </g>
    </g>
    <g id="patch_35">
     <path d="M 605.315016 97.075781 
L 627.315016 97.075781 
L 627.315016 89.375781 
L 605.315016 89.375781 
z
" style="fill: #b55d60; stroke: #ffffff; stroke-linejoin: miter"/>
    </g>
    <g id="text_14">
     <!-- lua5.5 -->
     <g style="fill: #262626" transform="translate(636.115016 97.075781) scale(0.11 -0.11)">
      <defs>
       <path id="DejaVuSans-2e" d="M 684 794 
L 1344 794 
L 1344 0 
L 684 0 
L 684 794 
z
" transform="scale(0.015625)"/>
      </defs>
      <use xlink:href="#DejaVuSans-6c"/>
      <use xlink:href="#DejaVuSans-75" transform="translate(27.783203 0)"/>
      <use xlink:href="#DejaVuSans-61" transform="translate(91.162109 0)"/>
      <use xlink:href="#DejaVuSans-35" transform="translate(152.441406 0)"/>
      <use xlink:href="#DejaVuSans-2e" transform="translate(216.064453 0)"/>
      <use xlink:href="#DejaVuSans-35" transform="translate(247.851562 0)"/>
     </g>
    </g>
   </g>
  </g>
 </g>
 <defs>
  <clipPath id="pe91d8428e6">
   <rect x="202.01" y="12.96" width="367.88" height="402.156"/>
  </clipPath>
 </defs>
</svg>
